<?xml version="1.0" encoding="UTF-8" standalone="no"?>
<!-- Created with Inkscape (http://www.inkscape.org/) -->

<svg
   xmlns:dc="http://purl.org/dc/elements/1.1/"
   xmlns:cc="http://creativecommons.org/ns#"
   xmlns:rdf="http://www.w3.org/1999/02/22-rdf-syntax-ns#"
   xmlns:svg="http://www.w3.org/2000/svg"
   xmlns="http://www.w3.org/2000/svg"
   xmlns:sodipodi="http://sodipodi.sourceforge.net/DTD/sodipodi-0.dtd"
   xmlns:inkscape="http://www.inkscape.org/namespaces/inkscape"
   id="svg2"
   version="1.1"
   inkscape:version="0.48.4 r9939"
   width="349.0788"
   height="112.49468"
   xml:space="preserve"
   sodipodi:docname="qwtb_logo.svg"
   inkscape:export-filename="/home/martin/zal/Dropbox/docasne-prace/qwtb_logo.png"
   inkscape:export-xdpi="600"
   inkscape:export-ydpi="600"><metadata
     id="metadata8"><rdf:RDF><cc:Work
         rdf:about=""><dc:format>image/svg+xml</dc:format><dc:type
           rdf:resource="http://purl.org/dc/dcmitype/StillImage" /><dc:title></dc:title></cc:Work></rdf:RDF></metadata><defs
     id="defs6" /><sodipodi:namedview
     pagecolor="#ffffff"
     bordercolor="#666666"
     borderopacity="1"
     objecttolerance="10"
     gridtolerance="10"
     guidetolerance="10"
     inkscape:pageopacity="0"
     inkscape:pageshadow="2"
     inkscape:window-width="1869"
     inkscape:window-height="1060"
     id="namedview4"
     showgrid="false"
     inkscape:zoom="2.8284271"
     inkscape:cx="148.49638"
     inkscape:cy="66.54704"
     inkscape:window-x="-4"
     inkscape:window-y="-3"
     inkscape:window-maximized="1"
     inkscape:current-layer="g10"
     fit-margin-top="0"
     fit-margin-left="0"
     fit-margin-right="0"
     fit-margin-bottom="0"
     showguides="true"
     inkscape:guide-bbox="true" /><g
     id="g10"
     inkscape:groupmode="layer"
     inkscape:label="ink_ext_XXXXXX"
     transform="matrix(1.25,0,0,-1.25,-28.797027,112.544)"><rect
       style="opacity:1;fill:#ffffff;fill-opacity:1;stroke:none"
       id="rect3885"
       width="279.26401"
       height="89.991997"
       x="23.037622"
       y="-90.031456"
       transform="scale(1,-1)" /><path
       d="m 39.420922,23.403674 -8.192,16.333737 -8.1913,16.334665 32.7653,0 -8.191,-16.334665 -8.191,-16.333737"
       style="fill:#ffffff;fill-opacity:1;fill-rule:evenodd;stroke:none"
       id="path3883"
       inkscape:connector-curvature="0" /><path
       inkscape:connector-curvature="0"
       id="path14"
       style="fill:#0994dc;fill-opacity:1;fill-rule:evenodd;stroke:none"
       d="m 81.7516,13.5301 111.64892,0 0,73.4363 -111.64892,0 0,-73.4363 z" /><path
       inkscape:connector-curvature="0"
       id="path18"
       style="fill:#231f20;fill-opacity:1;fill-rule:nonzero;stroke:none"
       d="m 60.018,36.525 22.0879,0 0,13.6996 -22.0879,0 0,-13.6996 z" /><path
       inkscape:connector-curvature="0"
       id="path20"
       style="fill:#99def9;fill-opacity:1;fill-rule:nonzero;stroke:none"
       d="m 102.748,15.4246 -21.0058,71.6 12.6933,0 14.9425,-53 14.225,53 12.71,0 -20.789,-71.6 -12.776,0" /><path
       inkscape:connector-curvature="0"
       id="path22"
       style="fill:#99def9;fill-opacity:1;fill-rule:nonzero;stroke:none"
       d="m 151.705,15.4246 -21.005,71.6 12.693,0 14.942,-53 14.226,53 12.71,0 -20.789,-71.6 -12.777,0" /><path
       inkscape:connector-curvature="0"
       id="path26"
       style="fill:#00a650;fill-opacity:1;fill-rule:nonzero;stroke:none"
       d="m 205.559,15.4246 -5.643,0 -2.207,7.1281 -10.379,0 -2.132,-7.1281 -5.541,0 10.034,31.5039 5.555,0 10.313,-31.5039 z m -9.55,12.452 -3.577,11.6968 -3.503,-11.6968 7.08,0" /><path
       inkscape:connector-curvature="0"
       id="path30"
       style="fill:none;stroke:#0994dc;stroke-width:12.75589943;stroke-linecap:butt;stroke-linejoin:miter;stroke-miterlimit:22.92560005;stroke-opacity:1;stroke-dasharray:none"
       d="m 87.779227,9.5875 132.243933,0"
       sodipodi:nodetypes="cc" /><path
       inkscape:connector-curvature="0"
       id="path36"
       style="fill:#ffffff;fill-opacity:1;fill-rule:evenodd;stroke:none"
       d="m 194.739,76.6902 10.476,-36.939 10.476,-36.94143 -41.903,0 10.476,36.94143 10.475,36.939" /><path
       inkscape:connector-curvature="0"
       id="path38"
       style="fill:#ffffff;fill-opacity:1;fill-rule:evenodd;stroke:none"
       d="m 133.356,44.5215 5.485,-22.2402 5.484,-22.2418469 -21.936,0 5.484,22.2418469 5.483,22.2402" /><path
       inkscape:connector-curvature="0"
       id="path40"
       style="fill:#ffffff;fill-opacity:1;fill-rule:evenodd;stroke:none"
       d="M 81.8473,87.0621 92.1836,51.5324 102.52,15.9996 l -41.3458,0 10.3363,35.5328 10.3368,35.5297" /><path
       inkscape:connector-curvature="0"
       id="path44"
       style="fill:#ffffff;fill-opacity:1;fill-rule:evenodd;stroke:none"
       d="m 157.675,31.5516 -8.191,28.1539 -8.191,28.1554 32.765,0 -8.191,-28.1554 -8.192,-28.1539" /><path
       inkscape:connector-curvature="0"
       id="path46"
       style="fill:#ffffff;fill-opacity:1;fill-rule:evenodd;stroke:none"
       d="m 230.443,30.8469 -8.348,28.691 -8.347,28.693 33.391,0 -8.348,-28.693 -8.348,-28.691" /><path
       inkscape:connector-curvature="0"
       id="path48"
       style="fill:#ffffff;fill-opacity:1;fill-rule:evenodd;stroke:none"
       d="m 109.345,33.7258 -8.192,28.1539 -8.1913,28.1555 32.7653,0 -8.191,-28.1555 -8.191,-28.1539" /><path
       inkscape:connector-curvature="0"
       id="path66"
       style="fill:#ffffff;fill-opacity:1;fill-rule:evenodd;stroke:none"
       d="m 59.0867,34.6793 24.3824,0 0,16.4148 -24.3824,0 0,-16.4148 z" /><path
       inkscape:connector-curvature="0"
       id="path16"
       style="fill:#000000;fill-opacity:1;fill-rule:nonzero;stroke:none"
       d="m 25.1878,50.7914 c 0,8.5168 1.266411,15.5332 3.781641,21.05 2.51523,5.5164 5.8133,9.6332 9.8777,12.3332 4.0645,2.7 8.9953,4.05 14.7754,4.05 8.3957,0 15.2254,-3.2 20.5059,-9.6164 5.2805,-6.4168 7.9293,-15.5336 7.9293,-27.3836 0,-11.9664 -2.7988,-21.3332 -8.3957,-28.0668 -4.8973,-5.95 -11.5774,-8.9332 -19.9895,-8.9332 -8.4953,0 -15.1918,2.95 -20.08943,8.8336 C 27.986631,29.791 25.1878,39.041 25.1878,50.7914 z m 12.193741,0.4832 c 0,-8.2168 1.5656,-14.3832 4.6809,-18.4832 3.1312,-4.1168 7.0129,-6.1668 11.6269,-6.1668 4.6645,0 8.5285,2.0332 11.577,6.1164 3.0656,4.0672 4.598,10.3336 4.598,18.7836 0,8.2668 -1.4828,14.4 -4.4648,18.35 -2.9813,3.9668 -6.8797,5.95 -11.7102,5.95 -4.8144,0 -8.7285,-2 -11.7601,-5.9832 -3.0321,-4 -4.5477,-10.1836 -4.5477,-18.5668" /><path
       inkscape:connector-curvature="0"
       id="path70"
       style="fill:none;stroke:#0994dc;stroke-width:12.75589943;stroke-linecap:butt;stroke-linejoin:miter;stroke-miterlimit:22.92560005;stroke-opacity:1;stroke-dasharray:none"
       d="M 54.193488,40.7234 91.952888,8.03242"
       sodipodi:nodetypes="cc" /><text
       xml:space="preserve"
       style="font-size:38.40000153px;font-style:italic;font-variant:normal;font-weight:600;font-stretch:normal;text-align:start;line-height:125%;writing-mode:lr-tb;text-anchor:start;opacity:0.7;color:#000000;fill:#c73a00;fill-opacity:1;fill-rule:nonzero;stroke:none;stroke-width:0.70899999;marker:none;visibility:visible;display:inline;overflow:visible;enable-background:accumulate;font-family:FreeSans;-inkscape-font-specification:FreeSans Semi-Bold Italic"
       x="-35.937988"
       y="677.45575"
       id="text3109"
       sodipodi:linespacing="125%"
       transform="scale(1,-1)"><tspan
         sodipodi:role="line"
         id="tspan3111"
         x="-35.937988"
         y="677.45575"
         style="font-size:115.19999695px;font-style:normal;font-variant:normal;font-weight:600;font-stretch:normal;stroke:none;font-family:FreeSans;-inkscape-font-specification:FreeSans Semi-Bold Italic"
         dx="0 0 0 0 4.6616058">QWAET<tspan
   style="font-size:115.19999695px;font-style:normal;font-variant:normal;font-weight:600;font-stretch:normal;stroke:none;font-family:FreeSans;-inkscape-font-specification:FreeSans Semi-Bold Italic"
   id="tspan3113"
   dx="-4.6616058">B</tspan></tspan></text>
<text
       transform="scale(1,-1)"
       sodipodi:linespacing="125%"
       id="text3119"
       y="396.05215"
       x="-32.590057"
       style="font-size:38.40000153px;font-style:normal;font-variant:normal;font-weight:normal;font-stretch:normal;text-align:start;line-height:125%;writing-mode:lr-tb;text-anchor:start;opacity:0.7;color:#000000;fill:#c73a00;fill-opacity:1;fill-rule:nonzero;stroke:#000000;stroke-width:0.56692916;stroke-linecap:butt;stroke-linejoin:miter;stroke-miterlimit:4;stroke-opacity:1;stroke-dasharray:1.1338583, 1.1338583;stroke-dashoffset:0;marker:none;visibility:visible;display:inline;overflow:visible;enable-background:accumulate;font-family:Waree;-inkscape-font-specification:Waree"
       xml:space="preserve"><tspan
         dx="0 0 0 0 4.6616058"
         style="font-size:115.19999695px;font-style:normal;font-variant:normal;font-weight:normal;font-stretch:normal;stroke:none;font-family:Waree;-inkscape-font-specification:Waree"
         y="396.05215"
         x="-32.590057"
         id="tspan3121"
         sodipodi:role="line">QWA<tspan
   id="tspan3123"
   style="font-size:115.19999695px;font-style:italic;font-variant:normal;font-weight:normal;font-stretch:normal;stroke:none;font-family:Waree;-inkscape-font-specification:Waree">E</tspan>T<tspan
   dx="-4.6616058"
   id="tspan3125"
   style="font-size:115.19999695px;font-style:italic;font-variant:normal;font-weight:normal;font-stretch:normal;stroke:none;font-family:Waree;-inkscape-font-specification:Waree">B</tspan></tspan></text>
<text
       transform="scale(1,-1)"
       sodipodi:linespacing="125%"
       id="text3918"
       y="560.20331"
       x="-13.335111"
       style="font-size:38.40000153px;font-style:normal;font-variant:normal;font-weight:bold;font-stretch:normal;text-align:start;line-height:125%;writing-mode:lr-tb;text-anchor:start;opacity:0.7;color:#000000;fill:#c73a00;fill-opacity:1;fill-rule:nonzero;stroke:none;stroke-width:0.70899999;marker:none;visibility:visible;display:inline;overflow:visible;enable-background:accumulate;font-family:Gillius ADF;-inkscape-font-specification:Gillius ADF Bold"
       xml:space="preserve"><tspan
         dx="0 0 0 0 4.6616058"
         style="font-size:115.19999695px;font-style:normal;font-variant:normal;font-weight:bold;font-stretch:normal;stroke:none;font-family:Gillius ADF;-inkscape-font-specification:Gillius ADF Bold"
         y="560.20331"
         x="-13.335111"
         id="tspan3920"
         sodipodi:role="line">QWA<tspan
   id="tspan3922"
   style="font-size:115.19999695px;font-style:italic;font-variant:normal;font-weight:bold;font-stretch:normal;stroke:none;font-family:Gillius ADF;-inkscape-font-specification:Gillius ADF Bold">E</tspan>T<tspan
   dx="-4.6616058"
   id="tspan3924"
   style="font-size:115.19999695px;font-style:italic;font-variant:normal;font-weight:bold;font-stretch:normal;stroke:none;font-family:Gillius ADF;-inkscape-font-specification:Gillius ADF Bold">B</tspan></tspan></text>
<text
       xml:space="preserve"
       style="font-size:38.40000153px;font-style:normal;font-variant:normal;font-weight:bold;font-stretch:normal;text-align:start;line-height:125%;writing-mode:lr-tb;text-anchor:start;opacity:0.7;color:#000000;fill:#c73a00;fill-opacity:1;fill-rule:nonzero;stroke:none;stroke-width:0.70899999;marker:none;visibility:visible;display:inline;overflow:visible;enable-background:accumulate;font-family:Gillius ADF;-inkscape-font-specification:Gillius ADF Bold"
       x="-42.382767"
       y="185.20163"
       id="text3930"
       sodipodi:linespacing="125%"
       transform="scale(1,-1)"><tspan
         sodipodi:role="line"
         id="tspan3932"
         x="-42.382767"
         y="185.20163"
         style="font-size:115.19999695px;font-style:normal;font-variant:normal;font-weight:bold;font-stretch:normal;stroke:none;font-family:Gillius ADF;-inkscape-font-specification:Gillius ADF Bold"
         dx="0 0">QW</tspan></text>
<text
       transform="scale(1,-1)"
       sodipodi:linespacing="125%"
       id="text3938"
       y="180.20705"
       x="212.39819"
       style="font-size:38.40000153px;font-style:normal;font-variant:normal;font-weight:bold;font-stretch:normal;text-align:start;line-height:125%;writing-mode:lr-tb;text-anchor:start;opacity:0.7;color:#000000;fill:#c73a00;fill-opacity:1;fill-rule:nonzero;stroke:none;stroke-width:0.70899999;marker:none;visibility:visible;display:inline;overflow:visible;enable-background:accumulate;font-family:Gillius ADF;-inkscape-font-specification:Gillius ADF Bold"
       xml:space="preserve"><tspan
         dx="0 9.6561794"
         style="font-size:115.19999695px;font-style:normal;font-variant:normal;font-weight:bold;font-stretch:normal;stroke:none;font-family:Gillius ADF;-inkscape-font-specification:Gillius ADF Bold"
         y="180.20705"
         x="212.39819"
         id="tspan3940"
         sodipodi:role="line"><tspan
   id="tspan3942"
   style="font-size:115.19999695px;font-style:italic;font-variant:normal;font-weight:bold;font-stretch:normal;stroke:none;font-family:Gillius ADF;-inkscape-font-specification:Gillius ADF Bold">E</tspan>T<tspan
   dx="-4.6616058"
   id="tspan3944"
   style="font-size:115.19999695px;font-style:italic;font-variant:normal;font-weight:bold;font-stretch:normal;stroke:none;font-family:Gillius ADF;-inkscape-font-specification:Gillius ADF Bold">B</tspan></tspan></text>
<text
       xml:space="preserve"
       style="font-size:40.49814606px;font-style:normal;font-variant:normal;font-weight:bold;font-stretch:normal;text-align:start;line-height:125%;writing-mode:lr-tb;text-anchor:start;opacity:0.7;color:#000000;fill:#c73a00;fill-opacity:1;fill-rule:nonzero;stroke:none;stroke-width:0.70899999;marker:none;visibility:visible;display:inline;overflow:visible;enable-background:accumulate;font-family:Gillius ADF;-inkscape-font-specification:Gillius ADF Bold"
       x="120.80856"
       y="175.65147"
       id="text3946"
       sodipodi:linespacing="125%"
       transform="scale(0.95328139,-1.0490082)"><tspan
         sodipodi:role="line"
         id="tspan3948"
         x="120.80856"
         y="175.65147"
         style="font-size:121.49443817px;font-style:normal;font-variant:normal;font-weight:bold;font-stretch:normal;stroke:none;font-family:Gillius ADF;-inkscape-font-specification:Gillius ADF Bold"
         dx="0">A</tspan></text>
<path
       style="fill:none;stroke:#000000;stroke-width:11.03999996;stroke-linecap:butt;stroke-linejoin:miter;stroke-miterlimit:4;stroke-opacity:1;stroke-dasharray:none"
       d="m 115.43577,-167.60789 38.7095,106.80688 37.67146,-123.84492"
       id="path3954"
       inkscape:connector-curvature="0"
       sodipodi:nodetypes="ccc" /><path
       style="font-size:60.13767242px;font-style:normal;font-variant:normal;font-weight:bold;font-stretch:normal;text-align:start;line-height:125%;writing-mode:lr-tb;text-anchor:start;color:#000000;fill:#99def7;fill-opacity:0.99215686;fill-rule:nonzero;stroke:none;stroke-width:0.70899999;marker:none;visibility:visible;display:inline;overflow:visible;enable-background:accumulate;font-family:Gillius ADF;-inkscape-font-specification:Gillius ADF Bold"
       d="m 308.53125,86.3125 -5.0625,26.28125 20.5625,0 0,0.34375 16.125,0 c 4.43315,0.26826 8.31464,1.42218 11.09375,4.125 l 24.65625,0 c -0.84642,-22.469185 -12.64209,-30.75 -29.09375,-30.75 l -38.28125,0 z"
       transform="matrix(0.8,0,0,-0.8,0,156)"
       id="text3058"
       inkscape:connector-curvature="0" /><path
       style="fill:none;stroke:#0994dc;stroke-width:12.0472002;stroke-linecap:butt;stroke-linejoin:miter;stroke-miterlimit:4;stroke-opacity:1;stroke-dasharray:none"
       d="m 185.80784,69.21718 67.57318,0"
       id="path3956"
       inkscape:connector-curvature="0"
       sodipodi:nodetypes="cc" /><path
       sodipodi:nodetypes="cc"
       inkscape:connector-curvature="0"
       id="path3958"
       d="M 217.79251,9.2385489 217.7821,79.886978"
       style="fill:none;stroke:#0994dc;stroke-width:12.0472002;stroke-linecap:square;stroke-linejoin:miter;stroke-miterlimit:4;stroke-opacity:1;stroke-dasharray:none" /><path
       sodipodi:nodetypes="cc"
       inkscape:connector-curvature="0"
       id="path3986"
       d="m 181.14338,81.0666 89.01435,0"
       style="fill:none;stroke:#99def7;stroke-width:11.91600037;stroke-linecap:butt;stroke-linejoin:miter;stroke-miterlimit:4;stroke-opacity:0.99215686;stroke-dasharray:none" /><path
       d="m 81.7516,189.33921 181.573,0 0,73.4363 -181.573,0 0,-73.4363 z"
       style="fill:#0994dc;fill-opacity:1;fill-rule:evenodd;stroke:none"
       id="path3988"
       inkscape:connector-curvature="0" /><path
       d="m 60.018,212.33411 22.0879,0 0,13.6996 -22.0879,0 0,-13.6996 z"
       style="fill:#231f20;fill-opacity:1;fill-rule:nonzero;stroke:none"
       id="path3990"
       inkscape:connector-curvature="0" /><path
       d="m 102.748,191.23371 -21.0058,71.6 12.6933,0 14.9425,-53 14.225,53 12.71,0 -20.789,-71.6 -12.776,0"
       style="fill:#99def9;fill-opacity:1;fill-rule:nonzero;stroke:none"
       id="path3992"
       inkscape:connector-curvature="0" /><path
       d="m 151.705,191.23371 -21.005,71.6 12.693,0 14.942,-53 14.226,53 12.71,0 -20.789,-71.6 -12.777,0"
       style="fill:#99def9;fill-opacity:1;fill-rule:nonzero;stroke:none"
       id="path3994"
       inkscape:connector-curvature="0" /><path
       d="m 224.182,191.23371 -21.005,71.6 12.693,0 14.943,-53 14.225,53 12.71,0 -20.789,-71.6 -12.777,0"
       style="fill:#99def9;fill-opacity:1;fill-rule:nonzero;stroke:none"
       id="path3996"
       inkscape:connector-curvature="0" /><path
       d="m 205.559,191.23371 -5.643,0 -2.207,7.1281 -10.379,0 -2.132,-7.1281 -5.541,0 10.034,31.5039 5.555,0 10.313,-31.5039 z m -9.55,12.452 -3.577,11.6968 -3.503,-11.6968 7.08,0"
       style="fill:#00a650;fill-opacity:1;fill-rule:nonzero;stroke:none"
       id="path3998"
       inkscape:connector-curvature="0" /><path
       d="m 258.131,191.23371 0,71.6 43.477,0 0,-12.1 -31.683,0 0,-15.8 29.484,0 0,-12.1 -29.484,0 0,-19.5 32.782,0 0,-12.1 -44.576,0"
       style="fill:#0994dc;fill-opacity:1;fill-rule:nonzero;stroke:none"
       id="path4000"
       inkscape:connector-curvature="0" /><path
       sodipodi:nodetypes="cc"
       d="m 87.795088,185.39661 195.560912,0"
       style="fill:none;stroke:#0994dc;stroke-width:12.75589943;stroke-linecap:butt;stroke-linejoin:miter;stroke-miterlimit:22.92560005;stroke-opacity:1;stroke-dasharray:none"
       id="path4002"
       inkscape:connector-curvature="0" /><path
       d="m 264.595,189.25951 1.416,0 0,-5.4379 c 0,-0.87812 -0.088,-1.53203 -0.264,-1.96211 -0.176,-0.43008 -0.438,-0.75976 -0.788,-0.98984 -0.35,-0.23008 -0.78,-0.3461 -1.292,-0.3461 -0.676,0 -1.204,0.23203 -1.588,0.6961 -0.382,0.46406 -0.575,1.16406 -0.58,2.1 l 1.344,0.19179 c 0.016,-0.50195 0.08,-0.85781 0.194,-1.06796 0.152,-0.2879 0.382,-0.43204 0.688,-0.43204 0.298,0 0.518,0.10391 0.658,0.31407 0.142,0.2082 0.212,0.67226 0.212,1.39023 l 0,5.54376"
       style="fill:#0c96de;fill-opacity:1;fill-rule:nonzero;stroke:none"
       id="path4004"
       inkscape:connector-curvature="0" /><path
       d="m 267.547,180.6677 0,8.59181 1.416,0 0,-3.81798 2.89,3.81798 1.916,0 -2.66,-3.3399 2.792,-5.25191 -1.842,0 -1.94,4.03594 -1.156,-1.44414 0,-2.5918 -1.416,0"
       style="fill:#0c96de;fill-opacity:1;fill-rule:nonzero;stroke:none"
       id="path4006"
       inkscape:connector-curvature="0" /><path
       d="m 194.739,252.49931 10.476,-36.939 10.476,-36.94143 -41.903,0 10.476,36.94143 10.475,36.939"
       style="fill:#ffffff;fill-opacity:1;fill-rule:evenodd;stroke:none"
       id="path4008"
       inkscape:connector-curvature="0" /><path
       d="m 133.356,220.33061 5.485,-22.2402 5.484,-22.24185 -21.936,0 5.484,22.24185 5.483,22.2402"
       style="fill:#ffffff;fill-opacity:1;fill-rule:evenodd;stroke:none"
       id="path4010"
       inkscape:connector-curvature="0" /><path
       d="m 81.8473,262.87121 10.3363,-35.5297 10.3364,-35.5328 -41.3458,0 10.3363,35.5328 10.3368,35.5297"
       style="fill:#ffffff;fill-opacity:1;fill-rule:evenodd;stroke:none"
       id="path4012"
       inkscape:connector-curvature="0" /><path
       d="m 193.975,331.75111 10.099,-34.567 10.098,-34.5695 -40.393,0 10.098,34.5695 10.098,34.567"
       style="fill:#99def9;fill-opacity:1;fill-rule:evenodd;stroke:none"
       id="path4014"
       inkscape:connector-curvature="0" /><path
       d="m 157.675,207.36071 -8.191,28.1539 -8.191,28.1554 32.765,0 -8.191,-28.1554 -8.192,-28.1539"
       style="fill:#ffffff;fill-opacity:1;fill-rule:evenodd;stroke:none"
       id="path4016"
       inkscape:connector-curvature="0" /><path
       d="m 230.443,206.65601 -8.348,28.691 -8.347,28.693 33.391,0 -8.348,-28.693 -8.348,-28.691"
       style="fill:#ffffff;fill-opacity:1;fill-rule:evenodd;stroke:none"
       id="path4018"
       inkscape:connector-curvature="0" /><path
       d="m 109.345,209.53491 -8.192,28.1539 -8.1913,28.1555 32.7653,0 -8.191,-28.1555 -8.191,-28.1539"
       style="fill:#ffffff;fill-opacity:1;fill-rule:evenodd;stroke:none"
       id="path4020"
       inkscape:connector-curvature="0" /><path
       d="m 267.307,250.99431 7.95,-29.4075 7.952,-29.4093 -31.805,0 7.951,29.4093 7.952,29.4075"
       style="fill:#ffffff;fill-opacity:1;fill-rule:evenodd;stroke:none"
       id="path4022"
       inkscape:connector-curvature="0" /><path
       d="m 267.385,192.29071 36.3168,0 0,59.0555 -36.3168,0 0,-59.0555 z"
       style="fill:#ffffff;fill-opacity:1;fill-rule:evenodd;stroke:none"
       id="path4024"
       inkscape:connector-curvature="0" /><path
       d="m 254.554,217.09391 41.525,0 0,12.1504 -41.525,0 0,-12.1504 z"
       style="fill:#0994dc;fill-opacity:1;fill-rule:evenodd;stroke:none"
       id="path4026"
       inkscape:connector-curvature="0" /><path
       d="m 301.752,268.54431 2.495,-9.2262 c -0.147,-0.8961 -0.293,-1.7969 -0.293,-2.7957 l 0.13,0.1297 c -0.86,-0.8742 -0.569,-3.1297 0.766,-3.3996 0,-5.0407 0.27,-10.2739 -1.459,-15.0856 0.201,1.1641 1.71,6.9899 -0.932,6.9899 -2.027,0 -1.905,-5.3629 -2.323,-6.3864 -1.125,-2.7601 -0.982,-6.2922 -1.185,-9.2445 -2.269,3.6828 -3.806,-4.4313 -3.936,-5.348 -1.223,-8.5997 -3.299,-17.4551 -3.299,-26.179 0,-0.4097 0.166,-0.7804 0.433,-1.0496 -0.138,-2.5515 -0.29,-5.0566 -0.419,-7.5601 -0.284,-0.5516 -0.61,-1.5235 -0.61,-2.136 l 0,0 c 10e-4,-0.9433 0.882,-1.64644 1.791,-1.45699 -0.02,-0.83086 -0.796,-1.44258 -0.887,-2.25898 -0.262,-2.35821 -0.724,-4.60352 -0.863,-6.94961 l -14.27,0 24.861,91.95668 z m -4.959,-63.9391 -0.009,-0.0805 0.009,0.0805"
       style="fill:#ffffff;fill-opacity:1;fill-rule:evenodd;stroke:none"
       id="path4028"
       inkscape:connector-curvature="0" /><path
       d="m 293.57,247.48881 6.596,-24.3988 6.597,-24.4004 -26.387,0 6.597,24.4004 6.597,24.3988"
       style="fill:#ffffff;fill-opacity:1;fill-rule:evenodd;stroke:none"
       id="path4030"
       inkscape:connector-curvature="0" /><path
       d="m 194.304,296.08811 16.497,-58.4731 16.496,-58.47699 -65.986,0 16.496,58.47699 16.497,58.4731"
       style="fill:#0994dc;fill-opacity:1;fill-rule:evenodd;stroke:none"
       id="path4032"
       inkscape:connector-curvature="0" /><path
       d="m 194.192,260.39541 11.743,-41.6261 11.744,-41.62895 -46.975,0 11.744,41.62895 11.744,41.6261"
       style="fill:#ffffff;fill-opacity:1;fill-rule:evenodd;stroke:none"
       id="path4034"
       inkscape:connector-curvature="0" /><path
       d="m 175.534,212.23291 33.6105,0 0,12.0473 -33.6105,0 0,-12.0473 z"
       style="fill:#0994dc;fill-opacity:1;fill-rule:evenodd;stroke:none"
       id="path4036"
       inkscape:connector-curvature="0" /><path
       d="m 59.0867,210.48841 24.3824,0 0,16.4148 -24.3824,0 0,-16.4148 z"
       style="fill:#ffffff;fill-opacity:1;fill-rule:evenodd;stroke:none"
       id="path4038"
       inkscape:connector-curvature="0" /><path
       d="m 25.1878,226.60051 c 0,8.5168 1.266411,15.5332 3.781641,21.05 2.51523,5.5164 5.8133,9.6332 9.8777,12.3332 4.0645,2.7 8.9953,4.05 14.7754,4.05 8.3957,0 15.2254,-3.2 20.5059,-9.6164 5.2805,-6.4168 7.9293,-15.5336 7.9293,-27.3836 0,-11.9664 -2.7988,-21.3332 -8.3957,-28.0668 -4.8973,-5.95 -11.5774,-8.9332 -19.9895,-8.9332 -8.4953,0 -15.1918,2.95 -20.08943,8.8336 -5.59648,6.7328 -8.395311,15.9828 -8.395311,27.7332 z m 12.193741,0.4832 c 0,-8.2168 1.5656,-14.3832 4.6809,-18.4832 3.1312,-4.1168 7.0129,-6.1668 11.6269,-6.1668 4.6645,0 8.5285,2.0332 11.577,6.1164 3.0656,4.0672 4.598,10.3336 4.598,18.7836 0,8.2668 -1.4828,14.4 -4.4648,18.35 -2.9813,3.9668 -6.8797,5.95 -11.7102,5.95 -4.8144,0 -8.7285,-2 -11.7601,-5.9832 -3.0321,-4 -4.5477,-10.1836 -4.5477,-18.5668"
       style="fill:#231f20;fill-opacity:1;fill-rule:nonzero;stroke:none"
       id="path4040"
       inkscape:connector-curvature="0" /><path
       sodipodi:nodetypes="cc"
       d="m 54.193488,216.53251 37.7594,-32.69098"
       style="fill:none;stroke:#0994dc;stroke-width:12.75589943;stroke-linecap:butt;stroke-linejoin:miter;stroke-miterlimit:22.92560005;stroke-opacity:1;stroke-dasharray:none"
       id="path4042"
       inkscape:connector-curvature="0" /><path
       d="m 289.624,180.08958 14.3277,0 0,24.7746 -14.3277,0 0,-24.7746 z"
       style="fill:#ffffff;fill-opacity:1;fill-rule:evenodd;stroke:none"
       id="path4044"
       inkscape:connector-curvature="0" /><text
       xml:space="preserve"
       style="font-size:39.16786957px;font-style:normal;font-variant:normal;font-weight:bold;font-stretch:normal;text-align:start;line-height:125%;writing-mode:lr-tb;text-anchor:start;color:#000000;fill:#0994dc;fill-opacity:1;fill-rule:nonzero;stroke:none;stroke-width:0.70899999;marker:none;visibility:visible;display:inline;overflow:visible;enable-background:accumulate;font-family:Gillius ADF;-inkscape-font-specification:Gillius ADF Bold"
       x="194.3772"
       y="-3.6936119"
       id="text3968"
       sodipodi:linespacing="125%"
       transform="matrix(1.1328667,0,-0.1052324,-0.88271635,0,0)"><tspan
         sodipodi:role="line"
         id="tspan3970"
         x="194.3772"
         y="-3.6936119"
         style="font-size:117.50358582px;font-style:normal;font-variant:normal;font-weight:bold;font-stretch:normal;fill:#0994dc;fill-opacity:1;stroke:none;font-family:Gillius ADF;-inkscape-font-specification:Gillius ADF Bold"><tspan
           style="font-size:117.50358582px;font-style:italic;font-variant:normal;font-weight:bold;font-stretch:normal;fill:#0994dc;fill-opacity:1;stroke:none;font-family:Gillius ADF;-inkscape-font-specification:Gillius ADF Bold"
           id="tspan3974"
           dx="-4.7548213">B</tspan></tspan></text>
<g
       transform="matrix(1.1328667,0,-0.1052324,-0.8840999,0,-0.04795071)"
       style="font-size:39.16786957px;font-style:normal;font-variant:normal;font-weight:bold;font-stretch:normal;text-align:start;line-height:125%;writing-mode:lr-tb;text-anchor:start;color:#000000;fill:#0994dc;fill-opacity:1;fill-rule:nonzero;stroke:none;stroke-width:0.70899999;marker:none;visibility:visible;display:inline;overflow:visible;enable-background:accumulate;font-family:Gillius ADF;-inkscape-font-specification:Gillius ADF Bold"
       id="text3083"><path
         d="m 242.734,-28.134358 c -1.76256,9.987795 -7.52024,13.630416 -16.45051,13.630416 l -14.68794,0 4.70014,-26.908321 14.68795,0 c 7.63772,0 12.10287,2.350079 12.10287,9.400287 0,1.175035 -0.11751,2.467577 -0.35251,3.877618 m -11.28035,-23.970731 -13.2779,0 3.46158,-19.450185 12.22037,0 c 6.46269,0.235007 11.44867,0.60622 11.44867,6.951407 0,3.877614 -1.39735,12.498778 -13.85272,12.498778 m 25.14577,20.680631 c 0,-6.932705 -3.1726,-12.925398 -10.34032,-16.215495 5.87518,-2.70258 12.69039,-9.870312 12.69039,-20.798135 0,-12.22036 -9.16529,-16.568005 -21.73816,-16.568005 l -25.73329,0 -14.33543,81.3124811 27.96585,0 c 25.73326,0 31.49096,-17.6255481 31.49096,-27.7308461"
         style="font-style:italic;fill:#0994dc;fill-opacity:1;marker:none;font-family:Gillius ADF;-inkscape-font-specification:Gillius ADF Bold"
         id="path3090"
         inkscape:connector-curvature="0"
         sodipodi:nodetypes="csccsscccccscccssccsc" /></g><flowRoot
       xml:space="preserve"
       id="flowRoot3875"
       style="font-size:10px;font-style:normal;font-weight:normal;line-height:125%;letter-spacing:0px;word-spacing:0px;fill:#000000;fill-opacity:1;stroke:none;font-family:Sans"><flowRegion
         id="flowRegion3877"><rect
           id="rect3879"
           width="412.05261"
           height="184.79935"
           x="-22.059381"
           y="-52.697292" /></flowRegion><flowPara
         id="flowPara3881"></flowPara></flowRoot></g></svg>