<?xml version="1.0" encoding="UTF-8" standalone="no"?>
<!DOCTYPE svg PUBLIC "-//W3C//DTD SVG 1.1//EN"
 "http://www.w3.org/Graphics/SVG/1.1/DTD/svg11.dtd">
<!-- Generated by graphviz version 2.36.0 (20140111.2315)
 -->
<!-- Title: qwtb_inner_dependencies Pages: 1 -->
<svg width="1168pt" height="871pt"
 viewBox="0.00 0.00 1168.00 871.00" xmlns="http://www.w3.org/2000/svg" xmlns:xlink="http://www.w3.org/1999/xlink">
<g id="graph0" class="graph" transform="scale(1 1) rotate(0) translate(4 867)">
<title>qwtb_inner_dependencies</title>
<polygon fill="white" stroke="none" points="-4,4 -4,-867 1164,-867 1164,4 -4,4"/>
<g id="clust1" class="cluster"><title>cluster_check_and_run_alg</title>
<polygon fill="none" stroke="black" points="8,-199 8,-785 218,-785 218,-199 8,-199"/>
<text text-anchor="middle" x="113" y="-769.8" font-family="Times,serif" font-size="14.00">check_and_run_alg</text>
</g>
<g id="clust2" class="cluster"><title>cluster_general_mcm</title>
<polygon fill="none" stroke="black" points="226,-8 226,-372 318,-372 318,-8 226,-8"/>
<text text-anchor="middle" x="272" y="-356.8" font-family="Times,serif" font-size="14.00">general_mcm</text>
</g>
<g id="clust3" class="cluster"><title>cluster_call_alg</title>
<polygon fill="none" stroke="black" points="326,-199 326,-372 426,-372 426,-199 326,-199"/>
<text text-anchor="middle" x="376" y="-356.8" font-family="Times,serif" font-size="14.00">call_alg</text>
</g>
<g id="clust4" class="cluster"><title>cluster_unc_to_val</title>
<polygon fill="none" stroke="black" points="434,-88 434,-372 520,-372 520,-88 434,-88"/>
<text text-anchor="middle" x="477" y="-356.8" font-family="Times,serif" font-size="14.00">unc_to_val</text>
</g>
<g id="clust5" class="cluster"><title>cluster_get_all_alg_info</title>
<polygon fill="none" stroke="black" points="226,-541 226,-785 342,-785 342,-541 226,-541"/>
<text text-anchor="middle" x="284" y="-769.8" font-family="Times,serif" font-size="14.00">get_all_alg_info</text>
</g>
<g id="clust6" class="cluster"><title>cluster_run_alg_test</title>
<polygon fill="none" stroke="black" points="350,-467 350,-785 496,-785 496,-467 350,-467"/>
<text text-anchor="middle" x="423" y="-769.8" font-family="Times,serif" font-size="14.00">run_alg_test</text>
</g>
<g id="clust7" class="cluster"><title>cluster_run_alg_example</title>
<polygon fill="none" stroke="black" points="568,-467 568,-785 714,-785 714,-467 568,-467"/>
<text text-anchor="middle" x="641" y="-769.8" font-family="Times,serif" font-size="14.00">run_alg_example</text>
</g>
<g id="clust8" class="cluster"><title>cluster_add_algdir</title>
<polygon fill="none" stroke="black" points="722,-636 722,-785 810,-785 810,-636 722,-636"/>
<text text-anchor="middle" x="766" y="-769.8" font-family="Times,serif" font-size="14.00">add_algdir</text>
</g>
<g id="clust9" class="cluster"><title>cluster_algpath</title>
<polygon fill="none" stroke="black" points="722,-541 722,-616 820,-616 820,-541 722,-541"/>
<text text-anchor="middle" x="771" y="-600.8" font-family="Times,serif" font-size="14.00">algpath</text>
</g>
<g id="clust10" class="cluster"><title>cluster_path_rem_algdir</title>
<polygon fill="none" stroke="black" points="818,-710 818,-785 925,-785 925,-710 818,-710"/>
<text text-anchor="middle" x="871.5" y="-769.8" font-family="Times,serif" font-size="14.00">path_rem_algdir</text>
</g>
<g id="clust11" class="cluster"><title>cluster_get_one_alg_info</title>
<polygon fill="none" stroke="black" points="933,-467 933,-785 1055,-785 1055,-467 933,-467"/>
<text text-anchor="middle" x="994" y="-769.8" font-family="Times,serif" font-size="14.00">get_one_alg_info</text>
</g>
<g id="clust12" class="cluster"><title>cluster_show_license</title>
<polygon fill="none" stroke="black" points="1063,-710 1063,-785 1152,-785 1152,-710 1063,-710"/>
<text text-anchor="middle" x="1107.5" y="-769.8" font-family="Times,serif" font-size="14.00">show_license</text>
</g>
<g id="clust13" class="cluster"><title>cluster_legend</title>
<path fill="none" stroke="blue" d="M624,-80C624,-80 890,-80 890,-80 896,-80 902,-86 902,-92 902,-92 902,-407 902,-407 902,-413 896,-419 890,-419 890,-419 624,-419 624,-419 618,-419 612,-413 612,-407 612,-407 612,-92 612,-92 612,-86 618,-80 624,-80"/>
<text text-anchor="middle" x="757" y="-403.8" font-family="Times,serif" font-size="14.00">legend</text>
</g>
<g id="clust14" class="cluster"><title>cluster_main_aux</title>
<polygon fill="none" stroke="black" points="788,-198 788,-388 894,-388 894,-198 788,-198"/>
<text text-anchor="middle" x="841" y="-372.8" font-family="Times,serif" font-size="14.00">calling</text>
<text text-anchor="middle" x="841" y="-357.8" font-family="Times,serif" font-size="14.00"> subfunction</text>
</g>
<g id="clust15" class="cluster"><title>cluster_called_subfunction</title>
<polygon fill="none" stroke="black" points="766,-88 766,-178 894,-178 894,-88 766,-88"/>
<text text-anchor="middle" x="830" y="-162.8" font-family="Times,serif" font-size="14.00">second called</text>
<text text-anchor="middle" x="830" y="-147.8" font-family="Times,serif" font-size="14.00"> subfunction content</text>
</g>
<!-- qwtb00 -->
<g id="node1" class="node"><title>qwtb00</title>
<polygon fill="none" stroke="black" stroke-width="2" points="733.25,-863 678.75,-863 678.75,-827 733.25,-827 733.25,-863"/>
<text text-anchor="middle" x="706" y="-841.3" font-family="bold" font-size="14.00">qwtb</text>
</g>
<!-- path_add_algdir05 -->
<g id="node2" class="node"><title>path_add_algdir05</title>
<polygon fill="none" stroke="black" points="209,-754 105,-754 105,-718 209,-718 209,-754"/>
<text text-anchor="middle" x="157" y="-732.3" font-family="Times,serif" font-size="14.00">path_add_algdir</text>
</g>
<!-- qwtb00&#45;&gt;path_add_algdir05 -->
<g id="edge8" class="edge"><title>qwtb00&#45;&gt;path_add_algdir05</title>
<path fill="none" stroke="black" d="M678.563,-842.628C591.903,-838 324.272,-821.378 227.122,-786.725"/>
<polygon fill="black" stroke="black" points="228.319,-783.436 217.73,-783.091 225.793,-789.964 228.319,-783.436"/>
<text text-anchor="middle" x="200.73" y="-786.891" font-family="Times,serif" font-size="14.00">datain</text>
</g>
<!-- qwtbdirpath01 -->
<g id="node18" class="node"><title>qwtbdirpath01</title>
<polygon fill="none" stroke="black" points="330,-754 248,-754 248,-718 330,-718 330,-754"/>
<text text-anchor="middle" x="289" y="-732.3" font-family="Times,serif" font-size="14.00">qwtbdirpath</text>
</g>
<!-- qwtb00&#45;&gt;qwtbdirpath01 -->
<g id="edge17" class="edge"><title>qwtb00&#45;&gt;qwtbdirpath01</title>
<path fill="none" stroke="black" d="M678.376,-844.365C617.654,-844.176 468.886,-838.251 351.086,-787.096"/>
<polygon fill="black" stroke="black" points="352.501,-783.895 341.944,-783.005 349.642,-790.284 352.501,-783.895"/>
<text text-anchor="middle" x="304.444" y="-786.805" font-family="Times,serif" font-size="14.00">no arguments</text>
</g>
<!-- path_add_algdir01 -->
<g id="node21" class="node"><title>path_add_algdir01</title>
<polygon fill="none" stroke="black" points="484,-754 380,-754 380,-718 484,-718 484,-754"/>
<text text-anchor="middle" x="432" y="-732.3" font-family="Times,serif" font-size="14.00">path_add_algdir</text>
</g>
<!-- qwtb00&#45;&gt;path_add_algdir01 -->
<g id="edge21" class="edge"><title>qwtb00&#45;&gt;path_add_algdir01</title>
<path fill="none" stroke="black" d="M678.726,-833.349C638.591,-817.676 562.198,-787.844 505.001,-765.508"/>
<polygon fill="black" stroke="black" points="506.225,-762.228 495.637,-761.851 503.679,-768.749 506.225,-762.228"/>
<text text-anchor="middle" x="622" y="-797.3" font-family="Times,serif" font-size="14.00">&#39;test&#39;</text>
</g>
<!-- path_add_algdir02 -->
<g id="node26" class="node"><title>path_add_algdir02</title>
<polygon fill="none" stroke="black" points="702,-754 598,-754 598,-718 702,-718 702,-754"/>
<text text-anchor="middle" x="650" y="-732.3" font-family="Times,serif" font-size="14.00">path_add_algdir</text>
</g>
<!-- qwtb00&#45;&gt;path_add_algdir02 -->
<g id="edge27" class="edge"><title>qwtb00&#45;&gt;path_add_algdir02</title>
<path fill="none" stroke="black" d="M691.897,-826.766C687.767,-821.277 683.441,-815.054 680,-809 677.282,-804.219 674.672,-799.143 672.203,-793.985"/>
<polygon fill="black" stroke="black" points="675.275,-792.287 667.92,-784.661 668.914,-795.209 675.275,-792.287"/>
<text text-anchor="middle" x="706" y="-797.3" font-family="Times,serif" font-size="14.00">&#39;example&#39;</text>
</g>
<!-- is_alg_dir -->
<g id="node31" class="node"><title>is_alg_dir</title>
<polygon fill="none" stroke="black" points="801.25,-754 730.75,-754 730.75,-718 801.25,-718 801.25,-754"/>
<text text-anchor="middle" x="766" y="-732.3" font-family="Times,serif" font-size="14.00">is_alg_dir</text>
</g>
<!-- qwtb00&#45;&gt;is_alg_dir -->
<g id="edge31" class="edge"><title>qwtb00&#45;&gt;is_alg_dir</title>
<path fill="none" stroke="black" d="M719.931,-826.666C724.054,-821.173 728.419,-814.973 732,-809 734.959,-804.065 737.854,-798.831 740.629,-793.525"/>
<polygon fill="black" stroke="black" points="743.769,-795.072 745.174,-784.57 737.527,-791.903 743.769,-795.072"/>
<text text-anchor="middle" x="765" y="-797.3" font-family="Times,serif" font-size="14.00">&#39;addpath&#39;</text>
</g>
<!-- algpath04 -->
<g id="node34" class="node"><title>algpath04</title>
<polygon fill="none" stroke="black" points="881.5,-754 826.5,-754 826.5,-718 881.5,-718 881.5,-754"/>
<text text-anchor="middle" x="854" y="-732.3" font-family="Times,serif" font-size="14.00">algpath</text>
</g>
<!-- qwtb00&#45;&gt;algpath04 -->
<g id="edge32" class="edge"><title>qwtb00&#45;&gt;algpath04</title>
<path fill="none" stroke="black" d="M733.525,-836.586C751.519,-830.892 774.944,-821.815 793,-809 799.892,-804.108 806.484,-798.265 812.616,-792.051"/>
<polygon fill="black" stroke="black" points="815.299,-794.307 819.594,-784.622 810.196,-789.514 815.299,-794.307"/>
<text text-anchor="middle" x="836" y="-797.3" font-family="Times,serif" font-size="14.00">&#39;rempath&#39;</text>
</g>
<!-- path_add_algdir04 -->
<g id="node35" class="node"><title>path_add_algdir04</title>
<polygon fill="none" stroke="black" points="1045,-754 941,-754 941,-718 1045,-718 1045,-754"/>
<text text-anchor="middle" x="993" y="-732.3" font-family="Times,serif" font-size="14.00">path_add_algdir</text>
</g>
<!-- qwtb00&#45;&gt;path_add_algdir04 -->
<g id="edge36" class="edge"><title>qwtb00&#45;&gt;path_add_algdir04</title>
<path fill="none" stroke="black" d="M733.305,-841.071C775.097,-835.714 856.782,-821.767 924.163,-787.407"/>
<polygon fill="black" stroke="black" points="925.944,-790.424 933.147,-782.654 922.671,-784.237 925.944,-790.424"/>
<text text-anchor="middle" x="926.5" y="-797.3" font-family="Times,serif" font-size="14.00">&#39;info&#39;</text>
</g>
<!-- algpath02 -->
<g id="node39" class="node"><title>algpath02</title>
<polygon fill="none" stroke="black" points="1126.5,-754 1071.5,-754 1071.5,-718 1126.5,-718 1126.5,-754"/>
<text text-anchor="middle" x="1099" y="-732.3" font-family="Times,serif" font-size="14.00">algpath</text>
</g>
<!-- qwtb00&#45;&gt;algpath02 -->
<g id="edge37" class="edge"><title>qwtb00&#45;&gt;algpath02</title>
<path fill="none" stroke="black" d="M733.259,-842.024C802.87,-836.595 986.237,-819.799 1054.45,-786.91"/>
<polygon fill="black" stroke="black" points="1056.14,-789.978 1063.29,-782.162 1052.83,-783.811 1056.14,-789.978"/>
<text text-anchor="middle" x="1059.5" y="-797.3" font-family="Times,serif" font-size="14.00">&#39;license&#39;</text>
</g>
<!-- alg_info02 -->
<g id="node3" class="node"><title>alg_info02</title>
<polygon fill="none" stroke="green" points="166.5,-680 105.5,-680 105.5,-644 166.5,-644 166.5,-680"/>
<text text-anchor="middle" x="136" y="-658.3" font-family="Times,serif" font-size="14.00">alg_info</text>
</g>
<!-- path_add_algdir05&#45;&gt;alg_info02 -->
<g id="edge1" class="edge"><title>path_add_algdir05&#45;&gt;alg_info02</title>
<path fill="none" stroke="black" d="M152.023,-717.937C149.601,-709.63 146.629,-699.444 143.906,-690.108"/>
<polygon fill="black" stroke="black" points="147.247,-689.061 141.087,-680.441 140.527,-691.021 147.247,-689.061"/>
</g>
<!-- check_gen_calcset -->
<g id="node4" class="node"><title>check_gen_calcset</title>
<polygon fill="none" stroke="black" points="190,-585 72,-585 72,-549 190,-549 190,-585"/>
<text text-anchor="middle" x="131" y="-563.3" font-family="Times,serif" font-size="14.00">check_gen_calcset</text>
</g>
<!-- alg_info02&#45;&gt;check_gen_calcset -->
<g id="edge2" class="edge"><title>alg_info02&#45;&gt;check_gen_calcset</title>
<path fill="none" stroke="black" d="M135.083,-643.942C134.354,-630.394 133.321,-611.18 132.477,-595.469"/>
<polygon fill="black" stroke="black" points="135.96,-595.062 131.928,-585.264 128.97,-595.438 135.96,-595.062"/>
</g>
<!-- check_gen_datain -->
<g id="node5" class="node"><title>check_gen_datain</title>
<polygon fill="none" stroke="black" points="187,-511 73,-511 73,-475 187,-475 187,-511"/>
<text text-anchor="middle" x="130" y="-489.3" font-family="Times,serif" font-size="14.00">check_gen_datain</text>
</g>
<!-- check_gen_calcset&#45;&gt;check_gen_datain -->
<g id="edge3" class="edge"><title>check_gen_calcset&#45;&gt;check_gen_datain</title>
<path fill="none" stroke="black" d="M130.763,-548.937C130.65,-540.807 130.512,-530.876 130.385,-521.705"/>
<polygon fill="black" stroke="black" points="133.881,-521.391 130.242,-511.441 126.882,-521.488 133.881,-521.391"/>
</g>
<!-- alg_wrapper00 -->
<g id="node7" class="node"><title>alg_wrapper00</title>
<polygon fill="none" stroke="green" points="99.5,-341 16.5,-341 16.5,-305 99.5,-305 99.5,-341"/>
<text text-anchor="middle" x="58" y="-319.3" font-family="Times,serif" font-size="14.00">alg_wrapper</text>
</g>
<!-- check_gen_datain&#45;&gt;alg_wrapper00 -->
<g id="edge4" class="edge"><title>check_gen_datain&#45;&gt;alg_wrapper00</title>
<path fill="none" stroke="black" d="M122.7,-474.967C110.14,-445.66 84.3538,-385.492 69.4059,-350.614"/>
<polygon fill="black" stroke="black" points="72.4756,-348.891 65.3193,-341.078 66.0415,-351.649 72.4756,-348.891"/>
</g>
<!-- general_mcm -->
<g id="node8" class="node"><title>general_mcm</title>
<polygon fill="none" stroke="black" points="210,-341 118,-341 118,-305 210,-305 210,-341"/>
<text text-anchor="middle" x="164" y="-319.3" font-family="Times,serif" font-size="14.00">general_mcm</text>
</g>
<!-- check_gen_datain&#45;&gt;general_mcm -->
<g id="edge5" class="edge"><title>check_gen_datain&#45;&gt;general_mcm</title>
<path fill="none" stroke="black" d="M133.447,-474.967C139.353,-445.786 151.451,-386.008 158.523,-351.064"/>
<polygon fill="black" stroke="black" points="161.99,-351.574 160.544,-341.078 155.13,-350.185 161.99,-351.574"/>
<text text-anchor="middle" x="183" y="-445.8" font-family="Times,serif" font-size="14.00">general Monte</text>
<text text-anchor="middle" x="183" y="-430.8" font-family="Times,serif" font-size="14.00"> Carlo method</text>
</g>
<!-- path_rem_algdir05 -->
<g id="node6" class="node"><title>path_rem_algdir05</title>
<polygon fill="none" stroke="black" points="146.25,-243 39.75,-243 39.75,-207 146.25,-207 146.25,-243"/>
<text text-anchor="middle" x="93" y="-221.3" font-family="Times,serif" font-size="14.00">path_rem_algdir</text>
</g>
<!-- alg_wrapper00&#45;&gt;path_rem_algdir05 -->
<g id="edge6" class="edge"><title>alg_wrapper00&#45;&gt;path_rem_algdir05</title>
<path fill="none" stroke="black" d="M64.2573,-304.837C69.533,-290.367 77.1728,-269.412 83.25,-252.743"/>
<polygon fill="black" stroke="black" points="86.6598,-253.608 86.7969,-243.014 80.0832,-251.21 86.6598,-253.608"/>
</g>
<!-- general_mcm&#45;&gt;path_rem_algdir05 -->
<g id="edge7" class="edge"><title>general_mcm&#45;&gt;path_rem_algdir05</title>
<path fill="none" stroke="black" d="M151.307,-304.837C140.302,-289.957 124.226,-268.221 111.74,-251.338"/>
<polygon fill="black" stroke="black" points="114.344,-248.973 105.583,-243.014 108.716,-253.136 114.344,-248.973"/>
</g>
<!-- isscalarP01 -->
<g id="node10" class="node"><title>isscalarP01</title>
<polygon fill="none" stroke="black" points="302.25,-243 237.75,-243 237.75,-207 302.25,-207 302.25,-243"/>
<text text-anchor="middle" x="270" y="-221.3" font-family="Times,serif" font-size="14.00">isscalarP</text>
</g>
<!-- general_mcm&#45;&gt;isscalarP01 -->
<g id="edge42" class="edge"><title>general_mcm&#45;&gt;isscalarP01</title>
<path fill="none" stroke="black" stroke-dasharray="1,5" d="M182.951,-304.837C195.009,-293.916 211.146,-279.301 226.249,-265.623"/>
</g>
<!-- call_alg02 -->
<g id="node9" class="node"><title>call_alg02</title>
<polygon fill="none" stroke="black" points="307.25,-341 248.75,-341 248.75,-305 307.25,-305 307.25,-341"/>
<text text-anchor="middle" x="278" y="-319.3" font-family="Times,serif" font-size="14.00">call_alg</text>
</g>
<!-- call_alg02&#45;&gt;isscalarP01 -->
<g id="edge9" class="edge"><title>call_alg02&#45;&gt;isscalarP01</title>
<path fill="none" stroke="black" d="M276.57,-304.837C275.375,-290.503 273.651,-269.807 272.268,-253.216"/>
<polygon fill="black" stroke="black" points="275.736,-252.689 271.418,-243.014 268.76,-253.27 275.736,-252.689"/>
</g>
<!-- alg_wrapper01 -->
<g id="node14" class="node"><title>alg_wrapper01</title>
<polygon fill="none" stroke="green" points="417.5,-243 334.5,-243 334.5,-207 417.5,-207 417.5,-243"/>
<text text-anchor="middle" x="376" y="-221.3" font-family="Times,serif" font-size="14.00">alg_wrapper</text>
</g>
<!-- call_alg02&#45;&gt;alg_wrapper01 -->
<g id="edge43" class="edge"><title>call_alg02&#45;&gt;alg_wrapper01</title>
<path fill="none" stroke="black" stroke-dasharray="1,5" d="M295.52,-304.837C304.161,-296.373 315.065,-285.691 326.035,-274.946"/>
</g>
<!-- isvectorP01 -->
<g id="node11" class="node"><title>isvectorP01</title>
<polygon fill="none" stroke="black" points="303.25,-132 236.75,-132 236.75,-96 303.25,-96 303.25,-132"/>
<text text-anchor="middle" x="270" y="-110.3" font-family="Times,serif" font-size="14.00">isvectorP</text>
</g>
<!-- isscalarP01&#45;&gt;isvectorP01 -->
<g id="edge10" class="edge"><title>isscalarP01&#45;&gt;isvectorP01</title>
<path fill="none" stroke="black" d="M270,-206.969C270,-189.712 270,-162.743 270,-142.462"/>
<polygon fill="black" stroke="black" points="273.5,-142.271 270,-132.271 266.5,-142.271 273.5,-142.271"/>
</g>
<!-- ismatrixP01 -->
<g id="node12" class="node"><title>ismatrixP01</title>
<polygon fill="none" stroke="black" points="304.25,-52 235.75,-52 235.75,-16 304.25,-16 304.25,-52"/>
<text text-anchor="middle" x="270" y="-30.3" font-family="Times,serif" font-size="14.00">ismatrixP</text>
</g>
<!-- isvectorP01&#45;&gt;ismatrixP01 -->
<g id="edge11" class="edge"><title>isvectorP01&#45;&gt;ismatrixP01</title>
<path fill="none" stroke="black" d="M270,-95.6893C270,-85.8938 270,-73.4218 270,-62.335"/>
<polygon fill="black" stroke="black" points="273.5,-62.2623 270,-52.2623 266.5,-62.2624 273.5,-62.2623"/>
</g>
<!-- unc_to_val -->
<g id="node13" class="node"><title>unc_to_val</title>
<polygon fill="none" stroke="black" points="416.25,-341 339.75,-341 339.75,-305 416.25,-305 416.25,-341"/>
<text text-anchor="middle" x="378" y="-319.3" font-family="Times,serif" font-size="14.00">unc_to_val</text>
</g>
<!-- unc_to_val&#45;&gt;alg_wrapper01 -->
<g id="edge12" class="edge"><title>unc_to_val&#45;&gt;alg_wrapper01</title>
<path fill="none" stroke="black" d="M377.642,-304.837C377.344,-290.503 376.913,-269.807 376.567,-253.216"/>
<polygon fill="black" stroke="black" points="380.062,-252.939 376.354,-243.014 373.064,-253.085 380.062,-252.939"/>
</g>
<!-- isvectorP02 -->
<g id="node16" class="node"><title>isvectorP02</title>
<polygon fill="none" stroke="black" points="509.25,-243 442.75,-243 442.75,-207 509.25,-207 509.25,-243"/>
<text text-anchor="middle" x="476" y="-221.3" font-family="Times,serif" font-size="14.00">isvectorP</text>
</g>
<!-- unc_to_val&#45;&gt;isvectorP02 -->
<g id="edge44" class="edge"><title>unc_to_val&#45;&gt;isvectorP02</title>
<path fill="none" stroke="black" stroke-dasharray="1,5" d="M395.52,-304.837C406.321,-294.257 420.659,-280.211 434.239,-266.908"/>
</g>
<!-- isscalarP02 -->
<g id="node15" class="node"><title>isscalarP02</title>
<polygon fill="none" stroke="black" points="508.25,-341 443.75,-341 443.75,-305 508.25,-305 508.25,-341"/>
<text text-anchor="middle" x="476" y="-319.3" font-family="Times,serif" font-size="14.00">isscalarP</text>
</g>
<!-- isscalarP02&#45;&gt;isvectorP02 -->
<g id="edge13" class="edge"><title>isscalarP02&#45;&gt;isvectorP02</title>
<path fill="none" stroke="black" d="M476,-304.837C476,-290.503 476,-269.807 476,-253.216"/>
<polygon fill="black" stroke="black" points="479.5,-253.014 476,-243.014 472.5,-253.014 479.5,-253.014"/>
</g>
<!-- ismatrixP02 -->
<g id="node17" class="node"><title>ismatrixP02</title>
<polygon fill="none" stroke="black" points="511.25,-132 442.75,-132 442.75,-96 511.25,-96 511.25,-132"/>
<text text-anchor="middle" x="477" y="-110.3" font-family="Times,serif" font-size="14.00">ismatrixP</text>
</g>
<!-- isvectorP02&#45;&gt;ismatrixP02 -->
<g id="edge14" class="edge"><title>isvectorP02&#45;&gt;ismatrixP02</title>
<path fill="none" stroke="black" d="M476.156,-206.969C476.315,-189.712 476.562,-162.743 476.748,-142.462"/>
<polygon fill="black" stroke="black" points="480.25,-142.303 476.842,-132.271 473.25,-142.239 480.25,-142.303"/>
</g>
<!-- alg_info01 -->
<g id="node20" class="node"><title>alg_info01</title>
<polygon fill="none" stroke="green" points="316.5,-680 255.5,-680 255.5,-644 316.5,-644 316.5,-680"/>
<text text-anchor="middle" x="286" y="-658.3" font-family="Times,serif" font-size="14.00">alg_info</text>
</g>
<!-- qwtbdirpath01&#45;&gt;alg_info01 -->
<g id="edge15" class="edge"><title>qwtbdirpath01&#45;&gt;alg_info01</title>
<path fill="none" stroke="black" d="M288.289,-717.937C287.95,-709.807 287.537,-699.876 287.154,-690.705"/>
<polygon fill="black" stroke="black" points="290.64,-690.286 286.727,-680.441 283.646,-690.578 290.64,-690.286"/>
</g>
<!-- check_alg_info -->
<g id="node19" class="node"><title>check_alg_info</title>
<polygon fill="none" stroke="black" points="334,-585 234,-585 234,-549 334,-549 334,-585"/>
<text text-anchor="middle" x="284" y="-563.3" font-family="Times,serif" font-size="14.00">check_alg_info</text>
</g>
<!-- alg_info01&#45;&gt;check_alg_info -->
<g id="edge16" class="edge"><title>alg_info01&#45;&gt;check_alg_info</title>
<path fill="none" stroke="black" d="M285.633,-643.942C285.342,-630.394 284.929,-611.18 284.591,-595.469"/>
<polygon fill="black" stroke="black" points="288.086,-595.187 284.371,-585.264 281.087,-595.337 288.086,-595.187"/>
</g>
<!-- get_standard_calcset01 -->
<g id="node22" class="node"><title>get_standard_calcset01</title>
<polygon fill="none" stroke="black" points="487.25,-680 358.75,-680 358.75,-644 487.25,-644 487.25,-680"/>
<text text-anchor="middle" x="423" y="-658.3" font-family="Times,serif" font-size="14.00">get_standard_calcset</text>
</g>
<!-- path_add_algdir01&#45;&gt;get_standard_calcset01 -->
<g id="edge18" class="edge"><title>path_add_algdir01&#45;&gt;get_standard_calcset01</title>
<path fill="none" stroke="black" d="M429.867,-717.937C428.84,-709.719 427.583,-699.66 426.426,-690.406"/>
<polygon fill="black" stroke="black" points="429.893,-689.929 425.18,-680.441 422.948,-690.798 429.893,-689.929"/>
</g>
<!-- alg_test -->
<g id="node23" class="node"><title>alg_test</title>
<polygon fill="none" stroke="green" points="480.25,-585 421.75,-585 421.75,-549 480.25,-549 480.25,-585"/>
<text text-anchor="middle" x="451" y="-563.3" font-family="Times,serif" font-size="14.00">alg_test</text>
</g>
<!-- get_standard_calcset01&#45;&gt;alg_test -->
<g id="edge19" class="edge"><title>get_standard_calcset01&#45;&gt;alg_test</title>
<path fill="none" stroke="black" d="M428.136,-643.942C432.254,-630.263 438.111,-610.81 442.866,-595.017"/>
<polygon fill="black" stroke="black" points="446.271,-595.849 445.802,-585.264 439.568,-593.831 446.271,-595.849"/>
</g>
<!-- path_rem_algdir01 -->
<g id="node24" class="node"><title>path_rem_algdir01</title>
<polygon fill="none" stroke="black" points="486.25,-511 379.75,-511 379.75,-475 486.25,-475 486.25,-511"/>
<text text-anchor="middle" x="433" y="-489.3" font-family="Times,serif" font-size="14.00">path_rem_algdir</text>
</g>
<!-- alg_test&#45;&gt;path_rem_algdir01 -->
<g id="edge20" class="edge"><title>alg_test&#45;&gt;path_rem_algdir01</title>
<path fill="none" stroke="black" d="M446.734,-548.937C444.68,-540.719 442.165,-530.66 439.851,-521.406"/>
<polygon fill="black" stroke="black" points="443.181,-520.293 437.36,-511.441 436.39,-521.991 443.181,-520.293"/>
</g>
<!-- qwtb01 -->
<g id="node25" class="node"><title>qwtb01</title>
<polygon fill="none" stroke="black" stroke-width="2" points="559.25,-511 504.75,-511 504.75,-475 559.25,-475 559.25,-511"/>
<text text-anchor="middle" x="532" y="-489.3" font-family="bold" font-size="14.00">qwtb</text>
</g>
<!-- alg_test&#45;&gt;qwtb01 -->
<g id="edge22" class="edge"><title>alg_test&#45;&gt;qwtb01</title>
<path fill="none" stroke="red" d="M470.196,-548.937C480.611,-539.679 493.654,-528.086 505.07,-517.938"/>
<polygon fill="red" stroke="red" points="507.512,-520.45 512.661,-511.19 502.862,-515.218 507.512,-520.45"/>
</g>
<!-- qwtb01&#45;&gt;alg_test -->
<g id="edge23" class="edge"><title>qwtb01&#45;&gt;alg_test</title>
<path fill="none" stroke="black" d="M521.88,-511.302C517.51,-517.92 512.018,-525.252 506,-531 500.941,-535.832 495.119,-540.372 489.196,-544.478"/>
<polygon fill="black" stroke="black" points="486.966,-541.755 480.525,-550.167 490.806,-547.607 486.966,-541.755"/>
</g>
<!-- get_standard_calcset02 -->
<g id="node27" class="node"><title>get_standard_calcset02</title>
<polygon fill="none" stroke="black" points="705.25,-680 576.75,-680 576.75,-644 705.25,-644 705.25,-680"/>
<text text-anchor="middle" x="641" y="-658.3" font-family="Times,serif" font-size="14.00">get_standard_calcset</text>
</g>
<!-- path_add_algdir02&#45;&gt;get_standard_calcset02 -->
<g id="edge24" class="edge"><title>path_add_algdir02&#45;&gt;get_standard_calcset02</title>
<path fill="none" stroke="black" d="M647.867,-717.937C646.84,-709.719 645.583,-699.66 644.426,-690.406"/>
<polygon fill="black" stroke="black" points="647.893,-689.929 643.18,-680.441 640.948,-690.798 647.893,-689.929"/>
</g>
<!-- alg_example -->
<g id="node28" class="node"><title>alg_example</title>
<polygon fill="none" stroke="green" points="703,-585 617,-585 617,-549 703,-549 703,-585"/>
<text text-anchor="middle" x="660" y="-563.3" font-family="Times,serif" font-size="14.00">alg_example</text>
</g>
<!-- get_standard_calcset02&#45;&gt;alg_example -->
<g id="edge25" class="edge"><title>get_standard_calcset02&#45;&gt;alg_example</title>
<path fill="none" stroke="black" d="M644.485,-643.942C647.253,-630.394 651.178,-611.18 654.388,-595.469"/>
<polygon fill="black" stroke="black" points="657.9,-595.763 656.473,-585.264 651.042,-594.361 657.9,-595.763"/>
</g>
<!-- path_rem_algdir02 -->
<g id="node29" class="node"><title>path_rem_algdir02</title>
<polygon fill="none" stroke="black" points="704.25,-511 597.75,-511 597.75,-475 704.25,-475 704.25,-511"/>
<text text-anchor="middle" x="651" y="-489.3" font-family="Times,serif" font-size="14.00">path_rem_algdir</text>
</g>
<!-- alg_example&#45;&gt;path_rem_algdir02 -->
<g id="edge26" class="edge"><title>alg_example&#45;&gt;path_rem_algdir02</title>
<path fill="none" stroke="black" d="M657.867,-548.937C656.84,-540.719 655.583,-530.66 654.426,-521.406"/>
<polygon fill="black" stroke="black" points="657.893,-520.929 653.18,-511.441 650.948,-521.798 657.893,-520.929"/>
</g>
<!-- qwtb02 -->
<g id="node30" class="node"><title>qwtb02</title>
<polygon fill="none" stroke="black" stroke-width="2" points="777.25,-511 722.75,-511 722.75,-475 777.25,-475 777.25,-511"/>
<text text-anchor="middle" x="750" y="-489.3" font-family="bold" font-size="14.00">qwtb</text>
</g>
<!-- alg_example&#45;&gt;qwtb02 -->
<g id="edge28" class="edge"><title>alg_example&#45;&gt;qwtb02</title>
<path fill="none" stroke="red" d="M681.329,-548.937C693.012,-539.59 707.672,-527.863 720.443,-517.646"/>
<polygon fill="red" stroke="red" points="722.89,-520.17 728.512,-511.19 718.517,-514.704 722.89,-520.17"/>
</g>
<!-- funout -->
<g id="node44" class="node"><title>funout</title>
<polygon fill="none" stroke="green" points="681.5,-349.5 620.5,-349.5 620.5,-296.5 681.5,-296.5 681.5,-349.5"/>
<text text-anchor="middle" x="651" y="-334.3" font-family="Times,serif" font-size="14.00">function</text>
<text text-anchor="middle" x="651" y="-319.3" font-family="Times,serif" font-size="14.00"> outside</text>
<text text-anchor="middle" x="651" y="-304.3" font-family="Times,serif" font-size="14.00"> qwtb.m</text>
</g>
<!-- path_rem_algdir02&#45;&gt;funout -->
<!-- qwtb02&#45;&gt;alg_example -->
<g id="edge29" class="edge"><title>qwtb02&#45;&gt;alg_example</title>
<path fill="none" stroke="black" d="M737.515,-511.298C732.247,-517.915 725.769,-525.247 719,-531 713.756,-535.456 707.874,-539.684 701.908,-543.56"/>
<polygon fill="black" stroke="black" points="699.831,-540.729 693.173,-548.971 703.518,-546.68 699.831,-540.729"/>
</g>
<!-- algpath03 -->
<g id="node32" class="node"><title>algpath03</title>
<polygon fill="none" stroke="black" points="796.5,-680 741.5,-680 741.5,-644 796.5,-644 796.5,-680"/>
<text text-anchor="middle" x="769" y="-658.3" font-family="Times,serif" font-size="14.00">algpath</text>
</g>
<!-- is_alg_dir&#45;&gt;algpath03 -->
<g id="edge30" class="edge"><title>is_alg_dir&#45;&gt;algpath03</title>
<path fill="none" stroke="black" d="M766.711,-717.937C767.05,-709.807 767.463,-699.876 767.846,-690.705"/>
<polygon fill="black" stroke="black" points="771.354,-690.578 768.273,-680.441 764.36,-690.286 771.354,-690.578"/>
</g>
<!-- qwtbdirpath02 -->
<g id="node33" class="node"><title>qwtbdirpath02</title>
<polygon fill="none" stroke="black" points="812,-585 730,-585 730,-549 812,-549 812,-585"/>
<text text-anchor="middle" x="771" y="-563.3" font-family="Times,serif" font-size="14.00">qwtbdirpath</text>
</g>
<!-- algpath03&#45;&gt;qwtbdirpath02 -->
<g id="edge45" class="edge"><title>algpath03&#45;&gt;qwtbdirpath02</title>
<path fill="none" stroke="black" stroke-dasharray="1,5" d="M769.367,-643.942C769.541,-635.865 769.758,-625.775 769.976,-615.613"/>
</g>
<!-- algpath01 -->
<g id="node36" class="node"><title>algpath01</title>
<polygon fill="none" stroke="black" points="1020.5,-680 965.5,-680 965.5,-644 1020.5,-644 1020.5,-680"/>
<text text-anchor="middle" x="993" y="-658.3" font-family="Times,serif" font-size="14.00">algpath</text>
</g>
<!-- path_add_algdir04&#45;&gt;algpath01 -->
<g id="edge33" class="edge"><title>path_add_algdir04&#45;&gt;algpath01</title>
<path fill="none" stroke="black" d="M993,-717.937C993,-709.807 993,-699.876 993,-690.705"/>
<polygon fill="black" stroke="black" points="996.5,-690.441 993,-680.441 989.5,-690.441 996.5,-690.441"/>
</g>
<!-- check_alginfo01 -->
<g id="node37" class="node"><title>check_alginfo01</title>
<polygon fill="none" stroke="black" points="1039.25,-585 946.75,-585 946.75,-549 1039.25,-549 1039.25,-585"/>
<text text-anchor="middle" x="993" y="-563.3" font-family="Times,serif" font-size="14.00">check_alginfo</text>
</g>
<!-- algpath01&#45;&gt;check_alginfo01 -->
<g id="edge34" class="edge"><title>algpath01&#45;&gt;check_alginfo01</title>
<path fill="none" stroke="black" d="M993,-643.942C993,-630.394 993,-611.18 993,-595.469"/>
<polygon fill="black" stroke="black" points="996.5,-595.264 993,-585.264 989.5,-595.264 996.5,-595.264"/>
</g>
<!-- path_rem_algdir04 -->
<g id="node38" class="node"><title>path_rem_algdir04</title>
<polygon fill="none" stroke="black" points="1047.25,-511 940.75,-511 940.75,-475 1047.25,-475 1047.25,-511"/>
<text text-anchor="middle" x="994" y="-489.3" font-family="Times,serif" font-size="14.00">path_rem_algdir</text>
</g>
<!-- check_alginfo01&#45;&gt;path_rem_algdir04 -->
<g id="edge35" class="edge"><title>check_alginfo01&#45;&gt;path_rem_algdir04</title>
<path fill="none" stroke="black" d="M993.237,-548.937C993.35,-540.807 993.488,-530.876 993.615,-521.705"/>
<polygon fill="black" stroke="black" points="997.118,-521.488 993.758,-511.441 990.119,-521.391 997.118,-521.488"/>
</g>
<!-- subfunction -->
<g id="node40" class="node"><title>subfunction</title>
<polygon fill="none" stroke="black" points="780,-341 700,-341 700,-305 780,-305 780,-341"/>
<text text-anchor="middle" x="740" y="-319.3" font-family="Times,serif" font-size="14.00">subfunction</text>
</g>
<!-- function -->
<g id="node41" class="node"><title>function</title>
<polygon fill="none" stroke="black" points="759.5,-243 698.5,-243 698.5,-207 759.5,-207 759.5,-243"/>
<text text-anchor="middle" x="729" y="-221.3" font-family="Times,serif" font-size="14.00">function</text>
</g>
<!-- subfunction&#45;&gt;function -->
<g id="edge38" class="edge"><title>subfunction&#45;&gt;function</title>
<path fill="none" stroke="red" d="M719.992,-304.712C712.887,-297.295 705.731,-288.027 702,-278 698.718,-269.178 701.336,-259.94 706.018,-251.739"/>
<polygon fill="red" stroke="red" points="709.013,-253.558 711.726,-243.316 703.219,-249.631 709.013,-253.558"/>
<text text-anchor="middle" x="727.5" y="-266.3" font-family="Times,serif" font-size="14.00">recursion</text>
</g>
<!-- function&#45;&gt;subfunction -->
<g id="edge39" class="edge"><title>function&#45;&gt;subfunction</title>
<path fill="none" stroke="black" d="M743.463,-243.25C747.335,-248.876 750.997,-255.386 753,-262 756.22,-272.635 754.661,-284.558 751.683,-294.957"/>
<polygon fill="black" stroke="black" points="748.261,-294.149 748.354,-304.743 754.888,-296.402 748.261,-294.149"/>
</g>
<!-- first called\n subfunction -->
<g id="node42" class="node"><title>first called\n subfunction</title>
<polygon fill="none" stroke="black" points="882.5,-342 799.5,-342 799.5,-304 882.5,-304 882.5,-342"/>
<text text-anchor="middle" x="841" y="-326.8" font-family="Times,serif" font-size="14.00">first called</text>
<text text-anchor="middle" x="841" y="-311.8" font-family="Times,serif" font-size="14.00"> subfunction</text>
</g>
<!-- second called\n subfunction -->
<g id="node43" class="node"><title>second called\n subfunction</title>
<polygon fill="none" stroke="black" points="886,-244 796,-244 796,-206 886,-206 886,-244"/>
<text text-anchor="middle" x="841" y="-228.8" font-family="Times,serif" font-size="14.00">second called</text>
<text text-anchor="middle" x="841" y="-213.8" font-family="Times,serif" font-size="14.00"> subfunction</text>
</g>
<!-- first called\n subfunction&#45;&gt;second called\n subfunction -->
<g id="edge40" class="edge"><title>first called\n subfunction&#45;&gt;second called\n subfunction</title>
<path fill="none" stroke="black" d="M841,-303.943C841,-290.086 841,-270.686 841,-254.708"/>
<polygon fill="black" stroke="black" points="844.5,-254.302 841,-244.302 837.5,-254.302 844.5,-254.302"/>
<text text-anchor="middle" x="853.5" y="-266.3" font-family="Times,serif" font-size="14.00">time</text>
</g>
<!-- some content -->
<g id="node45" class="node"><title>some content</title>
<polygon fill="none" stroke="black" points="885.25,-132 796.75,-132 796.75,-96 885.25,-96 885.25,-132"/>
<text text-anchor="middle" x="841" y="-110.3" font-family="Times,serif" font-size="14.00">some content</text>
</g>
<!-- second called\n subfunction&#45;&gt;some content -->
<g id="edge41" class="edge"><title>second called\n subfunction&#45;&gt;some content</title>
<path fill="none" stroke="black" stroke-dasharray="5,2" d="M841,-205.51C841,-197.651 841,-187.983 841,-177.924"/>
</g>
</g>
</svg>
