<?xml version="1.0" encoding="UTF-8" standalone="no"?>
<!DOCTYPE svg PUBLIC "-//W3C//DTD SVG 1.1//EN"
 "http://www.w3.org/Graphics/SVG/1.1/DTD/svg11.dtd">
<!-- Generated by graphviz version 2.36.0 (20140111.2315)
 -->
<!-- Title: qwtb_inner_dependencies Pages: 1 -->
<svg width="518pt" height="249pt"
 viewBox="0.00 0.00 518.00 249.00" xmlns="http://www.w3.org/2000/svg" xmlns:xlink="http://www.w3.org/1999/xlink">
<g id="graph0" class="graph" transform="scale(1 1) rotate(0) translate(4 245)">
<title>qwtb_inner_dependencies</title>
<polygon fill="white" stroke="none" points="-4,4 -4,-245 514,-245 514,4 -4,4"/>
<g id="clust1" class="cluster"><title>cluster_algorithm_directory</title>
<polygon fill="none" stroke="black" points="8,-8 8,-161 502,-161 502,-8 8,-8"/>
<text text-anchor="middle" x="255" y="-15.8" font-family="Times,serif" font-size="14.00">algorithm directory</text>
</g>
<!-- qwtb00 -->
<g id="node1" class="node"><title>qwtb00</title>
<polygon fill="none" stroke="black" stroke-width="2" points="326,-241 250,-241 250,-205 326,-205 326,-241"/>
<text text-anchor="middle" x="288" y="-219.3" font-family="bold" font-size="14.00">qwtb.m</text>
</g>
<!-- alg_wrapper -->
<g id="node2" class="node"><title>alg_wrapper</title>
<polygon fill="none" stroke="green" points="115.25,-153 16.75,-153 16.75,-115 115.25,-115 115.25,-153"/>
<text text-anchor="middle" x="66" y="-137.8" font-family="Times,serif" font-size="14.00">alg_wrapper.m</text>
<text text-anchor="middle" x="66" y="-122.8" font-family="Times,serif" font-size="14.00"> (Wrapper)</text>
</g>
<!-- qwtb00&#45;&gt;alg_wrapper -->
<g id="edge1" class="edge"><title>qwtb00&#45;&gt;alg_wrapper</title>
<path fill="none" stroke="black" d="M249.886,-208.433C216.7,-196.454 167.398,-178.259 125,-161 121.942,-159.755 118.805,-158.452 115.648,-157.12"/>
<polygon fill="black" stroke="black" points="116.747,-153.784 106.176,-153.07 113.995,-160.22 116.747,-153.784"/>
</g>
<!-- alg_info -->
<g id="node3" class="node"><title>alg_info</title>
<polygon fill="none" stroke="green" points="226,-153 134,-153 134,-115 226,-115 226,-153"/>
<text text-anchor="middle" x="180" y="-137.8" font-family="Times,serif" font-size="14.00">alg_info.m</text>
<text text-anchor="middle" x="180" y="-122.8" font-family="Times,serif" font-size="14.00"> (Description)</text>
</g>
<!-- qwtb00&#45;&gt;alg_info -->
<g id="edge3" class="edge"><title>qwtb00&#45;&gt;alg_info</title>
<path fill="none" stroke="black" d="M262.39,-204.951C254.428,-199.42 245.719,-193.126 238,-187 227.384,-178.575 216.192,-168.778 206.501,-159.974"/>
<polygon fill="black" stroke="black" points="208.825,-157.356 199.091,-153.172 204.091,-162.513 208.825,-157.356"/>
<text text-anchor="middle" x="251.5" y="-175.3" font-family="Times,serif" font-size="14.00">&#39;info&#39;</text>
</g>
<!-- alg_test -->
<g id="node4" class="node"><title>alg_test</title>
<polygon fill="none" stroke="green" points="363.25,-153 244.75,-153 244.75,-115 363.25,-115 363.25,-153"/>
<text text-anchor="middle" x="304" y="-137.8" font-family="Times,serif" font-size="14.00">alg_test.m</text>
<text text-anchor="middle" x="304" y="-122.8" font-family="Times,serif" font-size="14.00"> (Testing function)</text>
</g>
<!-- qwtb00&#45;&gt;alg_test -->
<g id="edge4" class="edge"><title>qwtb00&#45;&gt;alg_test</title>
<path fill="none" stroke="black" d="M275.67,-204.876C270.06,-194.918 265.56,-182.168 270,-171 271.384,-167.52 273.281,-164.182 275.477,-161.038"/>
<polygon fill="black" stroke="black" points="278.25,-163.175 281.84,-153.207 272.818,-158.761 278.25,-163.175"/>
<text text-anchor="middle" x="282" y="-175.3" font-family="Times,serif" font-size="14.00">&#39;test&#39;</text>
</g>
<!-- alg_example -->
<g id="node5" class="node"><title>alg_example</title>
<polygon fill="none" stroke="green" points="493.5,-153 382.5,-153 382.5,-115 493.5,-115 493.5,-153"/>
<text text-anchor="middle" x="438" y="-137.8" font-family="Times,serif" font-size="14.00">alg_example.m</text>
<text text-anchor="middle" x="438" y="-122.8" font-family="Times,serif" font-size="14.00"> (Example script)</text>
</g>
<!-- qwtb00&#45;&gt;alg_example -->
<g id="edge6" class="edge"><title>qwtb00&#45;&gt;alg_example</title>
<path fill="none" stroke="black" d="M313.199,-204.778C328.512,-194.555 348.596,-181.568 367,-171 374.75,-166.55 383.115,-162.051 391.289,-157.812"/>
<polygon fill="black" stroke="black" points="393.087,-160.823 400.395,-153.152 389.898,-154.592 393.087,-160.823"/>
<text text-anchor="middle" x="393" y="-175.3" font-family="Times,serif" font-size="14.00">&#39;example&#39;</text>
</g>
<!-- algorithm -->
<g id="node6" class="node"><title>algorithm</title>
<polygon fill="none" stroke="blue" points="126,-77 16,-77 16,-39 126,-39 126,-77"/>
<text text-anchor="middle" x="71" y="-61.8" font-family="Times,serif" font-size="14.00">X1, X2, ...</text>
<text text-anchor="middle" x="71" y="-46.8" font-family="Times,serif" font-size="14.00">(Algorithm files)</text>
</g>
<!-- alg_wrapper&#45;&gt;algorithm -->
<g id="edge2" class="edge"><title>alg_wrapper&#45;&gt;algorithm</title>
<path fill="none" stroke="black" d="M67.236,-114.708C67.7991,-106.374 68.4783,-96.3216 69.1038,-87.0633"/>
<polygon fill="black" stroke="black" points="72.5961,-87.295 69.7783,-77.0817 65.612,-86.823 72.5961,-87.295"/>
</g>
<!-- alg_test&#45;&gt;qwtb00 -->
<g id="edge5" class="edge"><title>alg_test&#45;&gt;qwtb00</title>
<path fill="none" stroke="red" d="M300.68,-153.051C298.474,-165.048 295.535,-181.028 293.042,-194.583"/>
<polygon fill="red" stroke="red" points="289.528,-194.343 291.161,-204.812 296.412,-195.61 289.528,-194.343"/>
</g>
<!-- alg_example&#45;&gt;qwtb00 -->
<g id="edge7" class="edge"><title>alg_example&#45;&gt;qwtb00</title>
<path fill="none" stroke="red" d="M435.696,-153C433.335,-164.261 428.575,-178.243 419,-187 396.587,-207.497 363.493,-216.224 336.176,-219.838"/>
<polygon fill="red" stroke="red" points="335.566,-216.384 326.023,-220.987 336.353,-223.34 335.566,-216.384"/>
</g>
</g>
</svg>
